<mxfile host="app.diagrams.net" modified="2022-02-15T12:11:13.384Z" agent="5.0 (Windows NT 10.0; Win64; x64) AppleWebKit/537.36 (KHTML, like Gecko) Chrome/98.0.4758.82 Safari/537.36" etag="0Z-11mECKWlIbI82GSoD" version="16.5.6" type="github">
  <diagram id="6a731a19-8d31-9384-78a2-239565b7b9f0" name="Page-1">
    <mxGraphModel dx="1422" dy="762" grid="1" gridSize="10" guides="1" tooltips="1" connect="1" arrows="1" fold="1" page="1" pageScale="1" pageWidth="827" pageHeight="1169" background="none" math="0" shadow="0">
      <root>
        <mxCell id="0" />
        <mxCell id="1" parent="0" />
        <mxCell id="2090" value="" style="rounded=1;whiteSpace=wrap;html=1;strokeColor=none;fillColor=#BAC8D3;fontSize=24;fontColor=#23445D;align=center;opacity=60;" parent="1" vertex="1">
          <mxGeometry x="470" y="70" width="180" height="120" as="geometry" />
        </mxCell>
        <mxCell id="2091" value="" style="rounded=1;whiteSpace=wrap;html=1;strokeColor=none;fillColor=#BAC8D3;fontSize=24;fontColor=#23445D;align=center;opacity=60;" parent="1" vertex="1">
          <mxGeometry x="490" y="230" width="160" height="360" as="geometry" />
        </mxCell>
        <mxCell id="2109" value="Internet&lt;br&gt;GPON" style="shape=mxgraph.cisco.storage.cloud;html=1;dashed=0;strokeColor=#23445D;fillColor=#ffffff;strokeWidth=2;fontFamily=Helvetica;fontSize=24;fontColor=#23445D;align=center;fontStyle=1" parent="1" vertex="1">
          <mxGeometry x="80" y="60" width="186" height="106" as="geometry" />
        </mxCell>
        <mxCell id="2138" value="" style="shape=mxgraph.cisco.routers.router;html=1;dashed=0;fillColor=#10739E;strokeColor=#ffffff;strokeWidth=2;verticalLabelPosition=bottom;verticalAlign=top;fontFamily=Helvetica;fontSize=36;fontColor=#FFB366" parent="1" vertex="1">
          <mxGeometry x="360" y="100" width="78" height="53" as="geometry" />
        </mxCell>
        <mxCell id="2170" value="" style="elbow=horizontal;endArrow=none;html=1;strokeColor=#23445D;endFill=0;strokeWidth=4;rounded=1;" parent="1" source="rcNIR8N15N0gZI9l1xsj-2260" target="2138" edge="1">
          <mxGeometry width="100" height="100" relative="1" as="geometry">
            <mxPoint x="910" y="220" as="sourcePoint" />
            <mxPoint x="1210.2777777777778" y="240.08333333333337" as="targetPoint" />
          </mxGeometry>
        </mxCell>
        <mxCell id="2228" value="&lt;font color=&quot;#23445d&quot;&gt;WAN (DHCP)&lt;/font&gt;" style="rounded=1;whiteSpace=wrap;html=1;strokeColor=none;fillColor=none;fontSize=14;fontColor=#742B21;align=center;fontStyle=1" parent="1" vertex="1">
          <mxGeometry x="480" y="81" width="73" height="19" as="geometry" />
        </mxCell>
        <mxCell id="rcNIR8N15N0gZI9l1xsj-2260" value="" style="shape=mxgraph.cisco.routers.wireless_router;sketch=0;html=1;pointerEvents=1;dashed=0;fillColor=#036897;strokeColor=#ffffff;strokeWidth=2;verticalLabelPosition=bottom;verticalAlign=top;align=center;outlineConnect=0;fontFamily=Helvetica;" vertex="1" parent="1">
          <mxGeometry x="560" y="88" width="78" height="77" as="geometry" />
        </mxCell>
        <mxCell id="rcNIR8N15N0gZI9l1xsj-2262" value="&lt;div style=&quot;text-align: center&quot;&gt;&lt;span&gt;&lt;font color=&quot;#23445d&quot; face=&quot;helvetica&quot; size=&quot;1&quot;&gt;&lt;b style=&quot;line-height: 1.3 ; font-size: 15px&quot;&gt;Mediaconverter&lt;/b&gt;&lt;/font&gt;&lt;/span&gt;&lt;/div&gt;" style="text;whiteSpace=wrap;html=1;fontFamily=Helvetica;" vertex="1" parent="1">
          <mxGeometry x="340" y="70" width="110" height="50" as="geometry" />
        </mxCell>
        <mxCell id="rcNIR8N15N0gZI9l1xsj-2263" value="" style="elbow=horizontal;endArrow=none;html=1;strokeColor=#23445D;endFill=0;strokeWidth=4;rounded=1;" edge="1" parent="1">
          <mxGeometry width="100" height="100" relative="1" as="geometry">
            <mxPoint x="360" y="126" as="sourcePoint" />
            <mxPoint x="260" y="126" as="targetPoint" />
          </mxGeometry>
        </mxCell>
        <mxCell id="rcNIR8N15N0gZI9l1xsj-2264" value="&lt;div style=&quot;text-align: center; font-size: 11px;&quot;&gt;&lt;span style=&quot;font-size: 11px;&quot;&gt;&lt;font color=&quot;#23445d&quot; face=&quot;helvetica&quot; style=&quot;font-size: 11px;&quot;&gt;&lt;b style=&quot;font-size: 11px;&quot;&gt;172.25.79.84&lt;/b&gt;&lt;/font&gt;&lt;/span&gt;&lt;/div&gt;" style="text;whiteSpace=wrap;html=1;fontFamily=Helvetica;fontSize=11;" vertex="1" parent="1">
          <mxGeometry x="480" y="100" width="110" height="50" as="geometry" />
        </mxCell>
        <mxCell id="rcNIR8N15N0gZI9l1xsj-2266" value="&lt;font color=&quot;#23445d&quot;&gt;WLAN&lt;br&gt;192.168.0.1-254&lt;br&gt;&lt;/font&gt;" style="rounded=1;whiteSpace=wrap;html=1;strokeColor=none;fillColor=none;fontSize=14;fontColor=#742B21;align=center;fontStyle=1" vertex="1" parent="1">
          <mxGeometry x="515" y="246" width="73" height="19" as="geometry" />
        </mxCell>
        <mxCell id="rcNIR8N15N0gZI9l1xsj-2267" value="" style="endArrow=none;dashed=1;html=1;dashPattern=1 3;strokeWidth=2;rounded=0;fontFamily=Helvetica;fontSize=11;exitX=0.688;exitY=-0.002;exitDx=0;exitDy=0;exitPerimeter=0;" edge="1" parent="1" source="2091" target="rcNIR8N15N0gZI9l1xsj-2260">
          <mxGeometry width="50" height="50" relative="1" as="geometry">
            <mxPoint x="680" y="350" as="sourcePoint" />
            <mxPoint x="730" y="300" as="targetPoint" />
          </mxGeometry>
        </mxCell>
        <mxCell id="rcNIR8N15N0gZI9l1xsj-2268" value="" style="shape=mxgraph.cisco.computers_and_peripherals.laptop;sketch=0;html=1;pointerEvents=1;dashed=0;fillColor=#036897;strokeColor=#ffffff;strokeWidth=2;verticalLabelPosition=bottom;verticalAlign=top;align=center;outlineConnect=0;fontFamily=Helvetica;" vertex="1" parent="1">
          <mxGeometry x="515" y="300" width="90" height="61" as="geometry" />
        </mxCell>
        <mxCell id="rcNIR8N15N0gZI9l1xsj-2269" value="" style="shape=mxgraph.cisco.computers_and_peripherals.laptop;sketch=0;html=1;pointerEvents=1;dashed=0;fillColor=#036897;strokeColor=#ffffff;strokeWidth=2;verticalLabelPosition=bottom;verticalAlign=top;align=center;outlineConnect=0;fontFamily=Helvetica;" vertex="1" parent="1">
          <mxGeometry x="510" y="399" width="90" height="61" as="geometry" />
        </mxCell>
        <mxCell id="rcNIR8N15N0gZI9l1xsj-2270" value="" style="shape=mxgraph.cisco.computers_and_peripherals.pc;sketch=0;html=1;pointerEvents=1;dashed=0;fillColor=#036897;strokeColor=#ffffff;strokeWidth=2;verticalLabelPosition=bottom;verticalAlign=top;align=center;outlineConnect=0;fontFamily=Helvetica;fontSize=11;" vertex="1" parent="1">
          <mxGeometry x="810" y="110" width="78" height="70" as="geometry" />
        </mxCell>
        <mxCell id="rcNIR8N15N0gZI9l1xsj-2271" value="" style="rounded=1;whiteSpace=wrap;html=1;strokeColor=none;fillColor=#BAC8D3;fontSize=24;fontColor=#23445D;align=center;opacity=60;" vertex="1" parent="1">
          <mxGeometry x="730" y="70" width="191" height="190" as="geometry" />
        </mxCell>
        <mxCell id="rcNIR8N15N0gZI9l1xsj-2272" value="&lt;font color=&quot;#23445d&quot;&gt;LAN (DHCP) 192.168.1.2-254&lt;/font&gt;" style="rounded=1;whiteSpace=wrap;html=1;strokeColor=none;fillColor=none;fontSize=14;fontColor=#742B21;align=center;fontStyle=1" vertex="1" parent="1">
          <mxGeometry x="660" y="117" width="110" height="19" as="geometry" />
        </mxCell>
        <mxCell id="rcNIR8N15N0gZI9l1xsj-2274" value="&lt;div style=&quot;text-align: center ; font-size: 11px&quot;&gt;&lt;span style=&quot;font-size: 11px&quot;&gt;&lt;font color=&quot;#23445d&quot; face=&quot;helvetica&quot; style=&quot;font-size: 11px&quot;&gt;&lt;b style=&quot;font-size: 11px&quot;&gt;Router&lt;/b&gt;&lt;/font&gt;&lt;/span&gt;&lt;/div&gt;&lt;div style=&quot;text-align: center ; font-size: 11px&quot;&gt;&lt;span style=&quot;font-size: 11px&quot;&gt;&lt;font color=&quot;#23445d&quot; face=&quot;helvetica&quot; style=&quot;font-size: 11px&quot;&gt;&lt;b style=&quot;font-size: 11px&quot;&gt;192.168.1.1&lt;/b&gt;&lt;/font&gt;&lt;/span&gt;&lt;/div&gt;" style="text;whiteSpace=wrap;html=1;fontFamily=Helvetica;fontSize=11;" vertex="1" parent="1">
          <mxGeometry x="480" y="130" width="110" height="50" as="geometry" />
        </mxCell>
        <mxCell id="rcNIR8N15N0gZI9l1xsj-2277" value="" style="shape=mxgraph.cisco.computers_and_peripherals.printer;sketch=0;html=1;pointerEvents=1;dashed=0;fillColor=#036897;strokeColor=#ffffff;strokeWidth=2;verticalLabelPosition=bottom;verticalAlign=top;align=center;outlineConnect=0;fontFamily=Helvetica;fontSize=11;" vertex="1" parent="1">
          <mxGeometry x="524.5" y="510" width="91" height="40" as="geometry" />
        </mxCell>
        <mxCell id="rcNIR8N15N0gZI9l1xsj-2279" value="" style="endArrow=none;html=1;rounded=0;fontFamily=Helvetica;fontSize=11;" edge="1" parent="1" source="rcNIR8N15N0gZI9l1xsj-2260">
          <mxGeometry width="50" height="50" relative="1" as="geometry">
            <mxPoint x="646.3473053892217" y="175" as="sourcePoint" />
            <mxPoint x="730" y="150" as="targetPoint" />
            <Array as="points">
              <mxPoint x="690" y="150" />
            </Array>
          </mxGeometry>
        </mxCell>
        <mxCell id="rcNIR8N15N0gZI9l1xsj-2280" value="" style="shape=mxgraph.cisco.servers.file_server;sketch=0;html=1;pointerEvents=1;dashed=0;fillColor=#036897;strokeColor=#ffffff;strokeWidth=2;verticalLabelPosition=bottom;verticalAlign=top;align=center;outlineConnect=0;fontFamily=Helvetica;fontSize=11;" vertex="1" parent="1">
          <mxGeometry x="757" y="190" width="43" height="58" as="geometry" />
        </mxCell>
        <mxCell id="rcNIR8N15N0gZI9l1xsj-2281" value="" style="endArrow=none;html=1;rounded=0;fontFamily=Helvetica;fontSize=11;entryX=0;entryY=0.75;entryDx=0;entryDy=0;" edge="1" parent="1" target="rcNIR8N15N0gZI9l1xsj-2271">
          <mxGeometry width="50" height="50" relative="1" as="geometry">
            <mxPoint x="648" y="146.57142857142856" as="sourcePoint" />
            <mxPoint x="700" y="220" as="targetPoint" />
            <Array as="points" />
          </mxGeometry>
        </mxCell>
        <mxCell id="rcNIR8N15N0gZI9l1xsj-2282" value="&lt;font color=&quot;#23445d&quot;&gt;NAS&lt;/font&gt;" style="rounded=1;whiteSpace=wrap;html=1;strokeColor=none;fillColor=none;fontSize=14;fontColor=#742B21;align=center;fontStyle=1" vertex="1" parent="1">
          <mxGeometry x="770.5" y="209.5" width="110" height="19" as="geometry" />
        </mxCell>
        <mxCell id="rcNIR8N15N0gZI9l1xsj-2284" value="&lt;font color=&quot;#23445d&quot;&gt;PC&lt;/font&gt;" style="rounded=1;whiteSpace=wrap;html=1;strokeColor=none;fillColor=none;fontSize=14;fontColor=#742B21;align=center;fontStyle=1" vertex="1" parent="1">
          <mxGeometry x="800" y="88" width="110" height="19" as="geometry" />
        </mxCell>
      </root>
    </mxGraphModel>
  </diagram>
</mxfile>
